<?xml version="1.0" encoding="utf-8"?>
<!-- Generator: Adobe Illustrator 26.0.2, SVG Export Plug-In . SVG Version: 6.00 Build 0)  -->
<svg version="1.1" id="Layer_1" xmlns="http://www.w3.org/2000/svg" xmlns:xlink="http://www.w3.org/1999/xlink" x="0px" y="0px"
	 viewBox="0 0 787 239.3" style="enable-background:new 0 0 787 239.3;" xml:space="preserve">
<style type="text/css">
	.st0{fill:#404041;}
	.st1{fill:#0997BA;}
	.st2{fill:#262626;}
</style>
<g>
	<polygon class="st0" points="626.3,125.2 577.8,125.2 577.8,176.2 562.6,176.2 562.6,60.7 634.2,60.7 634.2,73.1 577.8,73.1 
		577.8,112.7 626.3,112.7 	"/>
	<rect x="654" y="60.7" class="st0" width="15.2" height="115.5"/>
	<polygon class="st0" points="775.1,73.1 738,73.1 738,176.2 722.8,176.2 722.8,73.1 685.8,73.1 685.8,60.7 775.1,60.7 	"/>
</g>
<g>
	<path class="st1" d="M99.4,176.2H84.1v-53.4H25.8v53.4H10.6V60.7h15.2v49.7H84V60.7h15.3L99.4,176.2L99.4,176.2z"/>
	<path class="st1" d="M434.5,122.8h-50.1v40.9h58.2v12.5h-73.4V60.7h72.6v12.5h-57.4v37.2h50.1L434.5,122.8L434.5,122.8z"/>
	<path class="st1" d="M504.4,129.5h-27.1v46.7H462V60.7h38.2c13,0,23,3,30,8.9s10.5,14.5,10.5,25.9c0,7.2-1.9,13.5-5.8,18.8
		c-3.9,5.3-9.3,9.3-16.2,12l27.1,49v1h-16.3L504.4,129.5z M477.3,117h23.4c7.6,0,13.6-2,18.1-5.9s6.7-9.2,6.7-15.7
		c0-7.2-2.1-12.6-6.4-16.5c-4.3-3.8-10.4-5.8-18.5-5.8h-23.3V117z"/>
	<path class="st1" d="M306.7,71.5c-0.8-10.4-8.5-18.4-17.3-17.8c-8.8,0.6-15.3,9.5-14.6,19.9c0.8,10.4,8.5,18.4,17.3,17.8
		C300.9,90.8,307.4,81.9,306.7,71.5z"/>
	<path class="st1" d="M334.1,172.3c-6.2-6.4-11.1-13.5-14.6-21s-5.6-15.3-6.6-23.2c-0.5-3.8-0.6-7.5-0.6-11.2c2.4-1,4.8-2.1,7.1-3.3
		c5.5-3.1,10.4-7,14.7-11.5c8.5-8.9,14.3-19.9,17.3-31.2c3-11.4,3.3-23.2,1.1-34.4c-2.2-11.1-7-21.6-14.1-29.8
		c3.3,10.3,4.6,20.6,4.2,30.7c-0.4,10-2.5,19.7-6.3,28.4s-9,16.6-15.7,22.6c-3.3,3-6.9,5.6-10.7,7.5c-3.8,2-7.9,3.4-11.9,4.2
		c-4.4,0.9-8.4,0.9-12.6,0.4s-8.3-1.7-12.2-3.5c-7.9-3.5-15.1-9.5-20.7-17c-11.4-15-16.7-35.5-15-57c-5,9.6-7.4,20.9-7.2,32.1
		c0.2,11.4,3.1,23,8.8,33.4s14.4,19.7,25.5,25.7c1.6,0.9,3.3,1.7,5.1,2.4c0.2,1.6,0.4,3.3,0.5,5c0.4,4.8,0.4,9.8,0.1,14.8
		c-0.6,10-2.4,20.2-5.6,30.2s-7.8,19.8-13.7,29.1c-5.9,9.3-13.1,18-21.2,26C240,217,250,211,259.3,203.6s17.9-16.1,25.4-25.9
		c4.1-5.5,7.9-11.3,11.3-17.4c1.8,1.8,3.6,3.6,5.5,5.3c8,7.1,17,12.6,26.3,16.4c9.3,3.8,18.9,6,28.3,6.9
		C347.8,184.3,340.3,178.7,334.1,172.3z"/>
	<path class="st1" d="M205.3,76.8l12-20.9h-16.5l-6.1,10.6c-0.3-0.2-0.7-0.5-1-0.7c-7.1-4.5-15.2-6.7-24.5-6.7
		c-9.1,0-17.2,2.3-24.2,6.8c-7.1,4.5-12.5,11-16.4,19.6c-3.9,8.5-5.8,18.3-5.8,29.4v8.3c0.1,10.9,2.1,20.5,6,28.8
		c2.4,5.2,5.5,9.6,9.2,13.3l-10.7,18.6h16.4l6-10.4c5.9,2.8,12.5,4.3,19.7,4.3c9.3,0,17.5-2.2,24.4-6.7c7-4.4,12.4-10.9,16.2-19.3
		c3.8-8.4,5.7-18.3,5.7-29.6v-7.3c0-11.3-1.9-21.1-5.7-29.6C208.7,82.2,207.1,79.4,205.3,76.8z M138.1,122.2v-8.5
		c0.2-13,3-23.2,8.5-30.5s13.1-11,22.7-11c7.5,0,13.7,2.1,18.6,6.2l-42.4,73.8C140.6,144.7,138.1,134.7,138.1,122.2z M200.7,123.3
		c-0.2,13.4-2.9,23.7-8.3,30.8c-5.4,7.2-13,10.8-22.9,10.8c-4.9,0-9.3-0.9-13.1-2.8l40.5-70.5c2.5,6.3,3.7,14,3.7,23.2v8.5H200.7z"
		/>
</g>
<g>
	<polygon class="st0" points="626.3,125.2 577.8,125.2 577.8,176.2 562.6,176.2 562.6,60.7 634.2,60.7 634.2,73.1 577.8,73.1 
		577.8,112.7 626.3,112.7 	"/>
	<rect x="654" y="60.7" class="st0" width="15.2" height="115.5"/>
	<polygon class="st0" points="775.1,73.1 738,73.1 738,176.2 722.8,176.2 722.8,73.1 685.8,73.1 685.8,60.7 775.1,60.7 	"/>
</g>
<g>
	<path class="st1" d="M99.4,176.2H84.1v-53.4H25.8v53.4H10.6V60.7h15.2v49.7H84V60.7h15.3L99.4,176.2L99.4,176.2z"/>
	<path class="st1" d="M434.5,122.8h-50.1v40.9h58.2v12.5h-73.4V60.7h72.6v12.5h-57.4v37.2h50.1L434.5,122.8L434.5,122.8z"/>
	<path class="st1" d="M504.4,129.5h-27.1v46.7H462V60.7h38.2c13,0,23,3,30,8.9s10.5,14.5,10.5,25.9c0,7.2-1.9,13.5-5.8,18.8
		c-3.9,5.3-9.3,9.3-16.2,12l27.1,49v1h-16.3L504.4,129.5z M477.3,117h23.4c7.6,0,13.6-2,18.1-5.9s6.7-9.2,6.7-15.7
		c0-7.2-2.1-12.6-6.4-16.5c-4.3-3.8-10.4-5.8-18.5-5.8h-23.3V117z"/>
	<path class="st1" d="M306.7,71.5c-0.8-10.4-8.5-18.4-17.3-17.8c-8.8,0.6-15.3,9.5-14.6,19.9c0.8,10.4,8.5,18.4,17.3,17.8
		C300.9,90.8,307.4,81.9,306.7,71.5z"/>
	<path class="st1" d="M334.1,172.3c-6.2-6.4-11.1-13.5-14.6-21s-5.6-15.3-6.6-23.2c-0.5-3.8-0.6-7.5-0.6-11.2c2.4-1,4.8-2.1,7.1-3.3
		c5.5-3.1,10.4-7,14.7-11.5c8.5-8.9,14.3-19.9,17.3-31.2c3-11.4,3.3-23.2,1.1-34.4c-2.2-11.1-7-21.6-14.1-29.8
		c3.3,10.3,4.6,20.6,4.2,30.7c-0.4,10-2.5,19.7-6.3,28.4s-9,16.6-15.7,22.6c-3.3,3-6.9,5.6-10.7,7.5c-3.8,2-7.9,3.4-11.9,4.2
		c-4.4,0.9-8.4,0.9-12.6,0.4s-8.3-1.7-12.2-3.5c-7.9-3.5-15.1-9.5-20.7-17c-11.4-15-16.7-35.5-15-57c-5,9.6-7.4,20.9-7.2,32.1
		c0.2,11.4,3.1,23,8.8,33.4s14.4,19.7,25.5,25.7c1.6,0.9,3.3,1.7,5.1,2.4c0.2,1.6,0.4,3.3,0.5,5c0.4,4.8,0.4,9.8,0.1,14.8
		c-0.6,10-2.4,20.2-5.6,30.2s-7.8,19.8-13.7,29.1c-5.9,9.3-13.1,18-21.2,26C240,217,250,211,259.3,203.6s17.9-16.1,25.4-25.9
		c4.1-5.5,7.9-11.3,11.3-17.4c1.8,1.8,3.6,3.6,5.5,5.3c8,7.1,17,12.6,26.3,16.4c9.3,3.8,18.9,6,28.3,6.9
		C347.8,184.3,340.3,178.7,334.1,172.3z"/>
	<path class="st1" d="M205.3,76.8l12-20.9h-16.5l-6.1,10.6c-0.3-0.2-0.7-0.5-1-0.7c-7.1-4.5-15.2-6.7-24.5-6.7
		c-9.1,0-17.2,2.3-24.2,6.8c-7.1,4.5-12.5,11-16.4,19.6c-3.9,8.5-5.8,18.3-5.8,29.4v8.3c0.1,10.9,2.1,20.5,6,28.8
		c2.4,5.2,5.5,9.6,9.2,13.3l-10.7,18.6h16.4l6-10.4c5.9,2.8,12.5,4.3,19.7,4.3c9.3,0,17.5-2.2,24.4-6.7c7-4.4,12.4-10.9,16.2-19.3
		c3.8-8.4,5.7-18.3,5.7-29.6v-7.3c0-11.3-1.9-21.1-5.7-29.6C208.7,82.2,207.1,79.4,205.3,76.8z M138.1,122.2v-8.5
		c0.2-13,3-23.2,8.5-30.5s13.1-11,22.7-11c7.5,0,13.7,2.1,18.6,6.2l-42.4,73.8C140.6,144.7,138.1,134.7,138.1,122.2z M200.7,123.3
		c-0.2,13.4-2.9,23.7-8.3,30.8c-5.4,7.2-13,10.8-22.9,10.8c-4.9,0-9.3-0.9-13.1-2.8l40.5-70.5c2.5,6.3,3.7,14,3.7,23.2v8.5H200.7z"
		/>
</g>
<g>
	<polygon class="st0" points="626.3,125.2 577.8,125.2 577.8,176.2 562.6,176.2 562.6,60.7 634.2,60.7 634.2,73.1 577.8,73.1 
		577.8,112.7 626.3,112.7 	"/>
	<rect x="654" y="60.7" class="st0" width="15.2" height="115.5"/>
	<polygon class="st0" points="775.1,73.1 738,73.1 738,176.2 722.8,176.2 722.8,73.1 685.8,73.1 685.8,60.7 775.1,60.7 	"/>
</g>
<g>
	<path class="st1" d="M99.4,176.2H84.1v-53.4H25.8v53.4H10.6V60.7h15.2v49.7H84V60.7h15.3L99.4,176.2L99.4,176.2z"/>
	<path class="st1" d="M434.5,122.8h-50.1v40.9h58.2v12.5h-73.4V60.7h72.6v12.5h-57.4v37.2h50.1L434.5,122.8L434.5,122.8z"/>
	<path class="st1" d="M504.4,129.5h-27.1v46.7H462V60.7h38.2c13,0,23,3,30,8.9s10.5,14.5,10.5,25.9c0,7.2-1.9,13.5-5.8,18.8
		c-3.9,5.3-9.3,9.3-16.2,12l27.1,49v1h-16.3L504.4,129.5z M477.3,117h23.4c7.6,0,13.6-2,18.1-5.9s6.7-9.2,6.7-15.7
		c0-7.2-2.1-12.6-6.4-16.5c-4.3-3.8-10.4-5.8-18.5-5.8h-23.3V117z"/>
	<path class="st1" d="M306.7,71.5c-0.8-10.4-8.5-18.4-17.3-17.8c-8.8,0.6-15.3,9.5-14.6,19.9c0.8,10.4,8.5,18.4,17.3,17.8
		C300.9,90.8,307.4,81.9,306.7,71.5z"/>
	<path class="st1" d="M334.1,172.3c-6.2-6.4-11.1-13.5-14.6-21s-5.6-15.3-6.6-23.2c-0.5-3.8-0.6-7.5-0.6-11.2c2.4-1,4.8-2.1,7.1-3.3
		c5.5-3.1,10.4-7,14.7-11.5c8.5-8.9,14.3-19.9,17.3-31.2c3-11.4,3.3-23.2,1.1-34.4c-2.2-11.1-7-21.6-14.1-29.8
		c3.3,10.3,4.6,20.6,4.2,30.7c-0.4,10-2.5,19.7-6.3,28.4s-9,16.6-15.7,22.6c-3.3,3-6.9,5.6-10.7,7.5c-3.8,2-7.9,3.4-11.9,4.2
		c-4.4,0.9-8.4,0.9-12.6,0.4s-8.3-1.7-12.2-3.5c-7.9-3.5-15.1-9.5-20.7-17c-11.4-15-16.7-35.5-15-57c-5,9.6-7.4,20.9-7.2,32.1
		c0.2,11.4,3.1,23,8.8,33.4s14.4,19.7,25.5,25.7c1.6,0.9,3.3,1.7,5.1,2.4c0.2,1.6,0.4,3.3,0.5,5c0.4,4.8,0.4,9.8,0.1,14.8
		c-0.6,10-2.4,20.2-5.6,30.2s-7.8,19.8-13.7,29.1c-5.9,9.3-13.1,18-21.2,26C240,217,250,211,259.3,203.6s17.9-16.1,25.4-25.9
		c4.1-5.5,7.9-11.3,11.3-17.4c1.8,1.8,3.6,3.6,5.5,5.3c8,7.1,17,12.6,26.3,16.4c9.3,3.8,18.9,6,28.3,6.9
		C347.8,184.3,340.3,178.7,334.1,172.3z"/>
	<path class="st1" d="M205.3,76.8l12-20.9h-16.5l-6.1,10.6c-0.3-0.2-0.7-0.5-1-0.7c-7.1-4.5-15.2-6.7-24.5-6.7
		c-9.1,0-17.2,2.3-24.2,6.8c-7.1,4.5-12.5,11-16.4,19.6c-3.9,8.5-5.8,18.3-5.8,29.4v8.3c0.1,10.9,2.1,20.5,6,28.8
		c2.4,5.2,5.5,9.6,9.2,13.3l-10.7,18.6h16.4l6-10.4c5.9,2.8,12.5,4.3,19.7,4.3c9.3,0,17.5-2.2,24.4-6.7c7-4.4,12.4-10.9,16.2-19.3
		c3.8-8.4,5.7-18.3,5.7-29.6v-7.3c0-11.3-1.9-21.1-5.7-29.6C208.7,82.2,207.1,79.4,205.3,76.8z M138.1,122.2v-8.5
		c0.2-13,3-23.2,8.5-30.5s13.1-11,22.7-11c7.5,0,13.7,2.1,18.6,6.2l-42.4,73.8C140.6,144.7,138.1,134.7,138.1,122.2z M200.7,123.3
		c-0.2,13.4-2.9,23.7-8.3,30.8c-5.4,7.2-13,10.8-22.9,10.8c-4.9,0-9.3-0.9-13.1-2.8l40.5-70.5c2.5,6.3,3.7,14,3.7,23.2v8.5H200.7z"
		/>
</g>
<g>
	<polygon class="st2" points="626.4,125.2 577.9,125.2 577.9,176.2 562.7,176.2 562.7,60.7 634.3,60.7 634.3,73.1 577.9,73.1 
		577.9,112.7 626.4,112.7 	"/>
	<rect x="654.1" y="60.7" class="st2" width="15.2" height="115.5"/>
	<polygon class="st2" points="775.2,73.1 738.1,73.1 738.1,176.2 722.9,176.2 722.9,73.1 685.9,73.1 685.9,60.7 775.2,60.7 	"/>
</g>
<g>
	<path class="st1" d="M99.4,176.2H84.1v-53.4H25.8v53.4H10.6V60.7h15.2v49.7H84V60.7h15.3L99.4,176.2L99.4,176.2z"/>
	<path class="st1" d="M434.5,122.8h-50.1v40.9h58.2v12.5h-73.4V60.7h72.6v12.5h-57.4v37.2h50.1L434.5,122.8L434.5,122.8z"/>
	<path class="st1" d="M504.4,129.5h-27.1v46.7H462V60.7h38.2c13,0,23,3,30,8.9s10.5,14.5,10.5,25.9c0,7.2-1.9,13.5-5.8,18.8
		c-3.9,5.3-9.3,9.3-16.2,12l27.1,49v1h-16.3L504.4,129.5z M477.3,117h23.4c7.6,0,13.6-2,18.1-5.9s6.7-9.2,6.7-15.7
		c0-7.2-2.1-12.6-6.4-16.5c-4.3-3.8-10.4-5.8-18.5-5.8h-23.3V117z"/>
	<path class="st1" d="M306.7,71.5c-0.8-10.4-8.5-18.4-17.3-17.8c-8.8,0.6-15.3,9.5-14.6,19.9c0.8,10.4,8.5,18.4,17.3,17.8
		C300.9,90.8,307.4,81.9,306.7,71.5z"/>
	<path class="st1" d="M334.1,172.3c-6.2-6.4-11.1-13.5-14.6-21s-5.6-15.3-6.6-23.2c-0.5-3.8-0.6-7.5-0.6-11.2c2.4-1,4.8-2.1,7.1-3.3
		c5.5-3.1,10.4-7,14.7-11.5c8.5-8.9,14.3-19.9,17.3-31.2c3-11.4,3.3-23.2,1.1-34.4c-2.2-11.1-7-21.6-14.1-29.8
		c3.3,10.3,4.6,20.6,4.2,30.7c-0.4,10-2.5,19.7-6.3,28.4s-9,16.6-15.7,22.6c-3.3,3-6.9,5.6-10.7,7.5c-3.8,2-7.9,3.4-11.9,4.2
		c-4.4,0.9-8.4,0.9-12.6,0.4s-8.3-1.7-12.2-3.5c-7.9-3.5-15.1-9.5-20.7-17c-11.4-15-16.7-35.5-15-57c-5,9.6-7.4,20.9-7.2,32.1
		c0.2,11.4,3.1,23,8.8,33.4s14.4,19.7,25.5,25.7c1.6,0.9,3.3,1.7,5.1,2.4c0.2,1.6,0.4,3.3,0.5,5c0.4,4.8,0.4,9.8,0.1,14.8
		c-0.6,10-2.4,20.2-5.6,30.2s-7.8,19.8-13.7,29.1c-5.9,9.3-13.1,18-21.2,26C240,217,250,211,259.3,203.6s17.9-16.1,25.4-25.9
		c4.1-5.5,7.9-11.3,11.3-17.4c1.8,1.8,3.6,3.6,5.5,5.3c8,7.1,17,12.6,26.3,16.4c9.3,3.8,18.9,6,28.3,6.9
		C347.8,184.3,340.3,178.7,334.1,172.3z"/>
	<path class="st1" d="M205.3,76.8l12-20.9h-16.5l-6.1,10.6c-0.3-0.2-0.7-0.5-1-0.7c-7.1-4.5-15.2-6.7-24.5-6.7
		c-9.1,0-17.2,2.3-24.2,6.8c-7.1,4.5-12.5,11-16.4,19.6c-3.9,8.5-5.8,18.3-5.8,29.4v8.3c0.1,10.9,2.1,20.5,6,28.8
		c2.4,5.2,5.5,9.6,9.2,13.3l-10.7,18.6h16.4l6-10.4c5.9,2.8,12.5,4.3,19.7,4.3c9.3,0,17.5-2.2,24.4-6.7c7-4.4,12.4-10.9,16.2-19.3
		c3.8-8.4,5.7-18.3,5.7-29.6v-7.3c0-11.3-1.9-21.1-5.7-29.6C208.7,82.2,207.1,79.4,205.3,76.8z M138.1,122.2v-8.5
		c0.2-13,3-23.2,8.5-30.5s13.1-11,22.7-11c7.5,0,13.7,2.1,18.6,6.2l-42.4,73.8C140.6,144.7,138.1,134.7,138.1,122.2z M200.7,123.3
		c-0.2,13.4-2.9,23.7-8.3,30.8c-5.4,7.2-13,10.8-22.9,10.8c-4.9,0-9.3-0.9-13.1-2.8l40.5-70.5c2.5,6.3,3.7,14,3.7,23.2v8.5H200.7z"
		/>
</g>
<g>
	<path class="st2" d="M345.7,216v8.6h-1.8v-21.1h7.2c2.2,0,3.9,0.6,5.2,1.7s1.9,2.7,1.9,4.6c0,2-0.6,3.5-1.8,4.6
		c-1.2,1.1-3,1.6-5.3,1.6L345.7,216L345.7,216z M345.7,214.5h5.4c1.7,0,3-0.4,3.9-1.2s1.4-2,1.4-3.4c0-1.5-0.5-2.6-1.4-3.5
		s-2.2-1.3-3.8-1.3h-5.5V214.5z"/>
	<path class="st2" d="M373.8,214.4H364v8.6h11.3v1.5h-13.1v-21.1h13v1.5H364v8h9.8V214.4z"/>
	<path class="st2" d="M387,215.8h-6.1v8.8h-1.8v-21.1h6.8c2.2,0,4,0.5,5.3,1.6s1.9,2.6,1.9,4.6c0,1.3-0.4,2.5-1.2,3.6
		c-0.8,1-1.9,1.7-3.2,2.1l5.3,9v0.2h-1.9L387,215.8z M380.9,214.2h5.5c1.5,0,2.7-0.4,3.6-1.3c0.9-0.8,1.4-2,1.4-3.3
		c0-1.5-0.5-2.6-1.4-3.5s-2.3-1.2-4-1.2h-5v9.3H380.9z"/>
	<path class="st2" d="M409.9,219.4c0-1.2-0.4-2.1-1.2-2.8c-0.8-0.7-2.3-1.3-4.5-1.9c-2.2-0.6-3.8-1.3-4.8-2c-1.4-1-2.1-2.4-2.1-4
		s0.7-2.9,2-3.9s3-1.5,5.1-1.5c1.4,0,2.6,0.3,3.8,0.8s2,1.3,2.6,2.3s0.9,2,0.9,3.2h-1.8c0-1.4-0.5-2.6-1.5-3.5s-2.3-1.3-4-1.3
		c-1.6,0-2.9,0.4-3.8,1.1c-1,0.7-1.4,1.7-1.4,2.8s0.4,1.9,1.3,2.6c0.9,0.7,2.2,1.3,4.1,1.8s3.3,1.1,4.3,1.6c1,0.6,1.7,1.2,2.2,2
		s0.7,1.7,0.7,2.7c0,1.7-0.7,3-2,4s-3.1,1.5-5.2,1.5c-1.5,0-2.8-0.3-4.1-0.8s-2.2-1.3-2.8-2.2c-0.6-1-1-2-1-3.3h1.8
		c0,1.5,0.6,2.7,1.7,3.5c1.1,0.9,2.6,1.3,4.4,1.3c1.6,0,3-0.4,3.9-1.1S409.9,220.5,409.9,219.4z"/>
	<path class="st2" d="M431.2,215.1c0,1.9-0.3,3.6-1,5.1s-1.6,2.6-2.9,3.4c-1.2,0.8-2.7,1.2-4.3,1.2c-2.5,0-4.4-0.9-6-2.6
		c-1.5-1.8-2.3-4.1-2.3-7.1v-2.2c0-1.9,0.3-3.6,1-5.1s1.6-2.6,2.9-3.4c1.2-0.8,2.7-1.2,4.3-1.2c1.6,0,3,0.4,4.3,1.2
		c1.2,0.8,2.2,1.9,2.9,3.3c0.7,1.4,1,3.1,1.1,5V215.1z M429.4,212.9c0-2.5-0.6-4.5-1.7-6c-1.1-1.4-2.7-2.2-4.7-2.2s-3.5,0.7-4.7,2.2
		c-1.2,1.4-1.7,3.5-1.7,6v2.2c0,2.5,0.6,4.5,1.7,5.9c1.2,1.5,2.7,2.2,4.7,2.2s3.6-0.7,4.7-2.2c1.1-1.4,1.7-3.4,1.7-6V212.9z"/>
	<path class="st2" d="M451.4,224.5h-1.8l-12.1-18v18h-1.8v-21.1h1.8l12.1,18v-18h1.8V224.5z"/>
	<path class="st2" d="M458.7,223h10.4v1.5h-12.2v-21.1h1.8L458.7,223L458.7,223z"/>
	<path class="st2" d="M474.7,224.5H473v-21.1h1.8L474.7,224.5L474.7,224.5z"/>
	<path class="st2" d="M495.7,222c-0.6,0.9-1.6,1.6-2.9,2.1s-2.8,0.7-4.4,0.7s-3.1-0.4-4.4-1.2s-2.3-1.9-3-3.4
		c-0.7-1.4-1.1-3.1-1.1-5v-2.7c0-2.9,0.7-5.2,2.2-6.9s3.5-2.5,5.9-2.5c2.2,0,3.9,0.6,5.2,1.7s2.1,2.6,2.4,4.6h-1.8
		c-0.3-1.5-0.9-2.7-1.9-3.5s-2.3-1.2-3.9-1.2c-2,0-3.5,0.7-4.7,2.1c-1.1,1.4-1.7,3.4-1.7,5.9v2.5c0,1.6,0.3,3,0.8,4.2
		s1.3,2.2,2.3,2.9s2.2,1,3.5,1c1.5,0,2.8-0.2,3.9-0.7c0.7-0.3,1.2-0.7,1.6-1.1V216H488v-1.5h7.4v7.5H495.7z"/>
	<path class="st2" d="M521.9,205h-7.2v19.5h-1.8V205h-7.2v-1.5h16.2V205z"/>
	<path class="st2" d="M533.2,215.8h-6.1v8.8h-1.8v-21.1h6.8c2.2,0,4,0.5,5.3,1.6s1.9,2.6,1.9,4.6c0,1.3-0.4,2.5-1.2,3.6
		c-0.8,1-1.9,1.7-3.2,2.1l5.3,9v0.2h-1.9L533.2,215.8z M527.1,214.2h5.5c1.5,0,2.7-0.4,3.6-1.3s1.4-2,1.4-3.3c0-1.5-0.5-2.6-1.4-3.5
		s-2.3-1.2-4-1.2h-5L527.1,214.2L527.1,214.2z"/>
	<path class="st2" d="M567.9,224.5h-11.8l-0.2-5.6h-8.6l-3.3,5.6h-2.1l12.7-21.1h12.5v1.5h-10l0.3,7.9h8.5v1.5h-8.5l0.4,8.8H568v1.4
		H567.9z M548.2,217.3h7.6l-0.5-12L548.2,217.3z"/>
	<path class="st2" d="M587,224.5h-1.8l-12.1-18v18h-1.8v-21.1h1.8l12.1,18v-18h1.8V224.5z"/>
	<path class="st2" d="M594.6,224.5h-1.8v-21.1h1.8V224.5z"/>
	<path class="st2" d="M616,224.5h-1.8l-12.1-18v18h-1.8v-21.1h1.8l12.1,18v-18h1.8V224.5z"/>
	<path class="st2" d="M636.7,222c-0.6,0.9-1.6,1.6-2.9,2.1c-1.3,0.5-2.8,0.7-4.4,0.7c-1.6,0-3.1-0.4-4.4-1.2c-1.3-0.8-2.3-1.9-3-3.4
		c-0.7-1.4-1.1-3.1-1.1-5v-2.7c0-2.9,0.7-5.2,2.2-6.9s3.5-2.5,5.9-2.5c2.2,0,3.9,0.6,5.2,1.7s2.1,2.6,2.4,4.6h-1.8
		c-0.3-1.5-0.9-2.7-1.9-3.5s-2.3-1.2-3.9-1.2c-2,0-3.5,0.7-4.7,2.1c-1.1,1.4-1.7,3.4-1.7,5.9v2.5c0,1.6,0.3,3,0.8,4.2
		s1.3,2.2,2.3,2.9s2.2,1,3.5,1c1.5,0,2.8-0.2,3.9-0.7c0.7-0.3,1.2-0.7,1.6-1.1V216H629v-1.5h7.4v7.5H636.7z"/>
	<path class="st2" d="M660.7,214.7h-9.8v9.8h-1.8v-21.1h13v1.5h-11.3v8.2h9.8L660.7,214.7L660.7,214.7z"/>
	<path class="st2" d="M681.4,215.1c0,1.9-0.3,3.6-1,5.1s-1.6,2.6-2.9,3.4c-1.2,0.8-2.7,1.2-4.3,1.2c-2.5,0-4.4-0.9-6-2.6
		c-1.5-1.8-2.3-4.1-2.3-7.1v-2.2c0-1.9,0.3-3.6,1-5.1s1.6-2.6,2.9-3.4c1.2-0.8,2.7-1.2,4.3-1.2s3,0.4,4.3,1.2
		c1.2,0.8,2.2,1.9,2.9,3.3c0.7,1.4,1,3.1,1.1,5V215.1z M679.6,212.9c0-2.5-0.6-4.5-1.7-6c-1.1-1.4-2.7-2.2-4.7-2.2s-3.5,0.7-4.7,2.2
		c-1.2,1.4-1.7,3.5-1.7,6v2.2c0,2.5,0.6,4.5,1.7,5.9c1.2,1.5,2.7,2.2,4.7,2.2s3.6-0.7,4.7-2.2c1.1-1.4,1.7-3.4,1.7-6V212.9z"/>
	<path class="st2" d="M693.8,215.8h-6.1v8.8h-1.8v-21.1h6.8c2.2,0,4,0.5,5.3,1.6s1.9,2.6,1.9,4.6c0,1.3-0.4,2.5-1.2,3.6
		c-0.8,1-1.9,1.7-3.2,2.1l5.3,9v0.2h-1.9L693.8,215.8z M687.7,214.2h5.5c1.5,0,2.7-0.4,3.6-1.3s1.4-2,1.4-3.3c0-1.5-0.5-2.6-1.4-3.5
		s-2.3-1.2-4-1.2h-5L687.7,214.2L687.7,214.2z"/>
	<path class="st2" d="M723.5,218.6H714l-2.2,5.9h-1.9l8-21.1h1.7l8,21.1h-1.9L723.5,218.6z M714.5,217.1h8.4l-4.2-11.5L714.5,217.1z
		"/>
	<path class="st2" d="M732.5,223h10.4v1.5h-12.2v-21.1h1.8V223z"/>
	<path class="st2" d="M748.2,223h10.4v1.5h-12.2v-21.1h1.8V223z"/>
	<path class="st2" d="M773.7,214.4h-9.8v8.6h11.3v1.5h-13.1v-21.1h13v1.5h-11.2v8h9.8V214.4z"/>
</g>
</svg>
